<?xml version="1.0" encoding="UTF-8"?>
<svg id="Layer_1" xmlns="http://www.w3.org/2000/svg" version="1.1" viewBox="-470 -70 1330 930">
  <!-- Generator: Adobe Illustrator 30.2.1, SVG Export Plug-In . SVG Version: 2.1.1 Build 1)  -->
  <defs>
    <style>
      .st0 {
        fill: #f9d342;
      }
    </style>
  </defs>
  <path class="st0" d="M337.67,419.43l-5.23,6.42c-4.59,5.64-9.19,11.27-13.78,16.91-.25.31-.46.63-.73,1.04-.14.22-.3.45-.48.73l-.74,1.09,19.59-6.43c10.77-3.54,21.91-7.2,32.88-10.74,3.29-1.06,6.12-2.93,8.86-4.74l.65-.43c3.9-2.57,7.81-5.13,11.71-7.69,8.47-5.56,16.93-11.11,25.38-16.71,5.33-3.52,10.57-7.06,15.48-10.37,8.14-2.59,13.42-4.25,18.03-5.69,6.64-2.08,11.88-3.72,22.25-7.1,11.75-3.84,19.72-5.87,26.13-7.5,8.77-2.23,15.11-3.84,25.19-8.46,14.42-6.61,33.91-18.26,32.08-23.5-.82-2.35-5.32-2.5-15.16-2.84l-2.95-.1c-3.37-.12-6.28-.01-9.1.09-5.25.2-10.21.38-17.14-1-.29-.06-2.55-.61-6.65-1.62-4.92-1.21-14.06-3.45-18.8-4.62-3.3-.77-6.68-1.05-10.05-.83-3.51.22-6.95.97-10.21,2.22-32.85,10.27-67.54,20.77-101.08,30.92-31.79,9.62-64.66,19.57-95.93,29.32l-41.73-25.75-33.44,8.92,35.25,38.32c-1.78,1.75-3.31,3.49-4.57,5.17l-21.29,5.85-13.38,9.46,31.23.96-163.01,71.59.31.84,280.42-83.73Z"/>
  <path class="st0" d="M159.03,445.24c-5.41-15.41-8.37-31.98-8.37-49.24,0-82.05,66.52-148.57,148.57-148.57,57.38,0,107.16,32.53,131.91,80.16l17.72-5.2c-27.19-55.16-83.97-93.12-149.63-93.12-92.08,0-166.73,74.65-166.73,166.73,0,19.79,3.46,38.77,9.78,56.38l16.75-7.14Z"/>
  <path class="st0" d="M447.77,393.28c.02.9.03,1.81.03,2.72,0,82.05-66.52,148.57-148.57,148.57-51.2,0-96.36-25.91-123.07-65.32l-18.31,5.14c29.47,47.05,81.77,78.34,141.39,78.34,92.08,0,166.73-74.65,166.73-166.73,0-2.79-.1-5.55-.24-8.3l-17.96,5.58Z"/>
</svg>