<?xml version="1.0" encoding="UTF-8"?>
<svg id="Layer_1" data-name="Layer 1" xmlns="http://www.w3.org/2000/svg" viewBox="0 0 1920.58 370.65">
  <defs>
    <style>
      .cls-1 {
        fill: #f9d342;
      }
    </style>
  </defs>
  <g>
    <path class="cls-1" d="M312.04,211.38l-5.82,7.14c-5.11,6.27-10.21,12.53-15.32,18.8-.28.35-.51.71-.81,1.16-.16.24-.33.5-.54.81l-.83,1.21,21.78-7.15c11.97-3.93,24.35-8,36.55-11.94,3.66-1.18,6.81-3.26,9.85-5.27l.72-.48c4.34-2.85,8.68-5.7,13.02-8.55,9.41-6.18,18.82-12.35,28.21-18.57,5.92-3.92,11.75-7.84,17.21-11.53,9.05-2.88,14.92-4.72,20.04-6.32,7.38-2.31,13.21-4.13,24.73-7.89,13.06-4.27,21.92-6.52,29.04-8.33,9.75-2.48,16.79-4.27,28-9.41,16.03-7.34,37.69-20.3,35.66-26.12-.91-2.61-5.91-2.78-16.85-3.16l-3.28-.12c-3.74-.13-6.98-.02-10.11.1-5.83.22-11.35.43-19.05-1.11-.32-.06-2.83-.68-7.39-1.8-5.47-1.34-15.63-3.84-20.9-5.14-3.67-.85-7.43-1.16-11.17-.93-3.9.25-7.73,1.08-11.35,2.47-36.52,11.42-75.07,23.09-112.36,34.37-35.34,10.7-71.88,21.76-106.63,32.59l-46.38-28.62-37.17,9.91,39.19,42.59c-1.98,1.95-3.68,3.88-5.08,5.75l-23.67,6.5-14.87,10.52,34.72,1.06L0,303.51l.34.94,311.7-93.07Z"/>
    <path class="cls-1" d="M113.48,240.06c-6.02-17.13-9.3-35.55-9.3-54.74,0-91.2,73.94-165.14,165.14-165.14,63.78,0,119.11,36.16,146.62,89.1l19.7-5.78C405.42,42.19,342.3,0,269.32,0,166.97,0,84,82.97,84,185.33c0,22,3.84,43.09,10.87,62.67l18.61-7.93Z"/>
    <path class="cls-1" d="M434.43,182.3c.02,1.01.03,2.01.03,3.02,0,91.2-73.94,165.14-165.14,165.14-56.92,0-107.11-28.8-136.8-72.61l-20.36,5.72c32.76,52.3,90.89,87.08,157.16,87.08,102.35,0,185.33-82.97,185.33-185.33,0-3.1-.11-6.17-.26-9.23l-19.96,6.2Z"/>
  </g>
  <path class="cls-1" d="M621.23,236.01l6.95-14.64c9.76,8.82,26.47,15.21,43.37,15.21,22.72,0,32.48-8.82,32.48-20.28,0-32.1-79.6-11.83-79.6-60.64,0-20.27,15.77-37.55,50.31-37.55,15.39,0,31.35,4.13,42.24,11.64l-6.2,15.02c-11.45-7.32-24.4-10.7-36.04-10.7-22.34,0-31.91,9.39-31.91,20.84,0,32.1,79.6,12.01,79.6,60.26,0,20.09-16.14,37.36-50.88,37.36-20.09,0-39.8-6.76-50.31-16.52Z"/>
  <path class="cls-1" d="M748.69,193.59v-74.72h18.77v73.96c0,29.1,13.33,42.24,36.98,42.24s37.17-13.14,37.17-42.24v-73.96h18.21v74.72c0,38.11-20.84,58.2-55.57,58.2s-55.57-20.09-55.57-58.2Z"/>
  <path class="cls-1" d="M1004.37,165.43c0,28.54-20.65,45.81-54.82,45.81h-32.48v39.8h-18.77V119.62h51.25c34.17,0,54.82,17.27,54.82,45.81ZM985.6,165.43c0-18.77-12.58-29.47-36.61-29.47h-31.91v58.95h31.91c24.03,0,36.61-10.7,36.61-29.47Z"/>
  <path class="cls-1" d="M1127.33,234.7v16.33h-95.37V119.62h92.74v16.33h-73.96v40.36h65.89v15.96h-65.89v42.43h76.59Z"/>
  <path class="cls-1" d="M1245.59,251.03l-28.35-40.36c-2.63.19-5.44.38-8.26.38h-32.48v39.99h-18.77V119.62h51.25c34.17,0,54.82,17.27,54.82,45.81,0,20.27-10.51,34.92-28.91,41.49l31.16,44.12h-20.46ZM1245.03,165.43c0-18.77-12.58-29.47-36.61-29.47h-31.91v59.13h31.91c24.03,0,36.61-10.89,36.61-29.66Z"/>
  <path class="cls-1" d="M1294.15,239.21l12.2-27.41c11.64,7.7,28.16,12.95,43.37,12.95s21.4-4.32,21.4-10.7c0-20.84-74.72-5.63-74.72-54.44,0-23.47,19.15-42.61,58.2-42.61,17.08,0,34.73,3.94,47.68,11.45l-11.45,27.6c-12.58-6.76-24.97-10.14-36.42-10.14-15.58,0-21.21,5.26-21.21,11.83,0,20.09,74.53,5.07,74.53,53.5,0,22.9-19.15,42.43-58.2,42.43-21.59,0-42.99-5.82-55.38-14.46Z"/>
  <path class="cls-1" d="M1418.04,185.33c0-39.42,30.98-68.33,73.03-68.33s73.03,28.91,73.03,68.33-30.97,68.33-73.03,68.33-73.03-28.91-73.03-68.33ZM1526.55,185.33c0-22.72-15.58-37.55-35.48-37.55s-35.48,14.83-35.48,37.55,15.58,37.55,35.48,37.55,35.48-14.83,35.48-37.55Z"/>
  <path class="cls-1" d="M1708.64,119.62v131.41h-30.6l-58.01-70.02v70.02h-36.42V119.62h30.6l58.01,70.02v-70.02h36.42Z"/>
  <path class="cls-1" d="M1734.92,119.62h37.17v131.41h-37.17V119.62Z"/>
  <path class="cls-1" d="M1791.79,185.33c0-39.99,30.6-68.33,72.28-68.33,24.22,0,43.74,8.82,56.51,24.78l-23.65,21.4c-8.26-9.95-18.4-15.39-30.97-15.39-21.59,0-36.61,15.02-36.61,37.55s15.02,37.55,36.61,37.55c12.58,0,22.71-5.44,30.97-15.39l23.65,21.4c-12.77,15.96-32.29,24.78-56.51,24.78-41.68,0-72.28-28.35-72.28-68.33Z"/>
</svg>