<?xml version="1.0" encoding="UTF-8"?>
<svg id="Layer_1" data-name="Layer 1" xmlns="http://www.w3.org/2000/svg" viewBox="0 0 526.1 55.33">
  <defs>
    <style>
      .cls-1 {
        fill: #f9d342;
      }
    </style>
  </defs>
  <path class="cls-1" d="M0,48.19l2.81-5.93c3.95,3.57,10.72,6.16,17.56,6.16,9.2,0,13.15-3.57,13.15-8.21C33.52,27.21,1.29,35.42,1.29,15.66,1.29,7.45,7.68.46,21.66.46c6.23,0,12.69,1.67,17.1,4.71l-2.51,6.08c-4.64-2.96-9.88-4.33-14.59-4.33-9.04,0-12.92,3.8-12.92,8.44,0,13,32.23,4.86,32.23,24.4,0,8.13-6.54,15.13-20.6,15.13-8.13,0-16.11-2.74-20.37-6.69Z"/>
  <path class="cls-1" d="M51.61,31.31V1.06h7.6v29.95c0,11.78,5.4,17.1,14.97,17.1s15.05-5.32,15.05-17.1V1.06h7.37v30.25c0,15.43-8.44,23.56-22.5,23.56s-22.5-8.13-22.5-23.56Z"/>
  <path class="cls-1" d="M155.13,19.61c0,11.55-8.36,18.55-22.19,18.55h-13.15v16.11h-7.6V1.06h20.75c13.83,0,22.19,6.99,22.19,18.55ZM147.53,19.61c0-7.6-5.09-11.93-14.82-11.93h-12.92v23.87h12.92c9.73,0,14.82-4.33,14.82-11.93Z"/>
  <path class="cls-1" d="M204.91,47.66v6.61h-38.61V1.06h37.55v6.61h-29.95v16.34h26.68v6.46h-26.68v17.18h31.01Z"/>
  <path class="cls-1" d="M252.8,54.27l-11.48-16.34c-1.06.08-2.2.15-3.34.15h-13.15v16.19h-7.6V1.06h20.75c13.83,0,22.19,6.99,22.19,18.55,0,8.21-4.26,14.14-11.71,16.8l12.62,17.86h-8.28ZM252.57,19.61c0-7.6-5.09-11.93-14.82-11.93h-12.92v23.94h12.92c9.73,0,14.82-4.41,14.82-12.01Z"/>
  <path class="cls-1" d="M272.46,49.48l4.94-11.1c4.71,3.12,11.4,5.24,17.56,5.24s8.66-1.75,8.66-4.33c0-8.44-30.25-2.28-30.25-22.04,0-9.5,7.75-17.25,23.56-17.25,6.92,0,14.06,1.6,19.31,4.64l-4.64,11.17c-5.09-2.74-10.11-4.1-14.75-4.1-6.31,0-8.59,2.13-8.59,4.79,0,8.13,30.18,2.05,30.18,21.66,0,9.27-7.75,17.18-23.56,17.18-8.74,0-17.41-2.36-22.42-5.85Z"/>
  <path class="cls-1" d="M322.63,27.67c0-15.96,12.54-27.67,29.57-27.67s29.57,11.71,29.57,27.67-12.54,27.67-29.57,27.67-29.57-11.71-29.57-27.67ZM366.56,27.67c0-9.2-6.31-15.2-14.37-15.2s-14.37,6-14.37,15.2,6.31,15.2,14.37,15.2,14.37-6,14.37-15.2Z"/>
  <path class="cls-1" d="M440.29,1.06v53.21h-12.39l-23.49-28.35v28.35h-14.75V1.06h12.39l23.49,28.35V1.06h14.75Z"/>
  <path class="cls-1" d="M450.93,1.06h15.05v53.21h-15.05V1.06Z"/>
  <path class="cls-1" d="M473.96,27.67c0-16.19,12.39-27.67,29.26-27.67,9.8,0,17.71,3.57,22.88,10.03l-9.58,8.66c-3.34-4.03-7.45-6.23-12.54-6.23-8.74,0-14.82,6.08-14.82,15.2s6.08,15.2,14.82,15.2c5.09,0,9.2-2.2,12.54-6.23l9.58,8.67c-5.17,6.46-13.07,10.03-22.88,10.03-16.87,0-29.26-11.48-29.26-27.67Z"/>
</svg>