<?xml version="1.0" encoding="UTF-8"?>
<svg id="Layer_1" xmlns="http://www.w3.org/2000/svg" version="1.1" viewBox="0 0 612 792">
  <!-- Generator: Adobe Illustrator 30.2.1, SVG Export Plug-In . SVG Version: 2.1.1 Build 1)  -->
  <defs>
    <style>
      .st0 {
        fill: #f9d342;
      }
    </style>
  </defs>
  <path class="st0" d="M393.23,460.56l-14.42,17.69c-12.66,15.53-25.31,31.06-37.96,46.59-.69.86-1.28,1.75-2.01,2.88-.38.59-.82,1.25-1.33,2l-2.05,3.01,53.96-17.71c29.67-9.75,60.36-19.83,90.57-29.59,9.06-2.93,16.87-8.08,24.42-13.06l1.79-1.18c10.75-7.07,21.51-14.13,32.27-21.19,23.33-15.31,46.65-30.62,69.92-46.02,14.67-9.71,29.11-19.44,42.65-28.57,22.42-7.15,36.98-11.7,49.66-15.67,18.29-5.72,32.73-10.24,61.28-19.56,32.37-10.58,54.33-16.16,71.97-20.65,24.16-6.14,41.62-10.59,69.4-23.31,39.73-18.2,93.41-50.31,88.37-64.73-2.26-6.47-14.64-6.9-41.77-7.83l-8.12-.29c-9.27-.33-17.3-.04-25.06.26-14.46.54-28.13,1.06-47.21-2.76-.8-.16-7.02-1.68-18.31-4.46-13.56-3.33-38.74-9.52-51.79-12.73-9.08-2.11-18.4-2.88-27.69-2.3-9.66.61-19.15,2.67-28.13,6.11-90.5,28.3-186.04,57.21-278.44,85.18-87.58,26.51-178.13,53.92-264.26,80.75l-114.95-70.93-92.11,24.56,97.11,105.56c-4.9,4.82-9.13,9.61-12.59,14.24l-58.65,16.11-36.86,26.07,86.04,2.63-449.02,197.2.85,2.32,772.46-230.64Z"/>
  <path class="st0" d="M-98.84,531.65c-14.91-42.46-23.05-88.1-23.05-135.65C-121.89,169.98,61.34-13.25,287.36-13.25c158.06,0,295.18,89.62,363.35,220.81l48.82-14.32C624.65,41.28,468.23-63.28,287.36-63.28c-253.65,0-459.28,205.63-459.28,459.28,0,54.51,9.52,106.8,26.95,155.31l46.13-19.66Z"/>
  <path class="st0" d="M696.53,388.5c.05,2.49.08,4.99.08,7.5,0,226.02-183.23,409.25-409.25,409.25-141.05,0-265.43-71.36-339.02-179.95l-50.45,14.17c81.19,129.61,225.25,215.81,389.47,215.81,253.65,0,459.28-205.63,459.28-459.28,0-7.68-.27-15.29-.65-22.87l-49.46,15.37Z"/>
</svg>